<svg width="13" height="14" viewBox="0 0 13 14" fill="none" xmlns="http://www.w3.org/2000/svg">
<path d="M6.49999 1.74999C5.51245 1.74995 4.54493 2.02843 3.70853 2.55346C2.87213 3.07849 2.20077 3.82878 1.77155 4.71816C1.34233 5.60754 1.17266 6.59995 1.28203 7.58141C1.39139 8.56287 1.77536 9.49358 2.38982 10.2667L1.49499 11.0168C0.579071 9.87864 0.0808419 8.46095 0.0833222 7C0.0833222 3.45625 2.95624 0.583328 6.49999 0.583328C10.0437 0.583328 12.9167 3.45625 12.9167 7C12.9187 8.46097 12.4203 9.87857 11.5044 11.0168L10.6102 10.2667C11.2246 9.49358 11.6086 8.56287 11.7179 7.58141C11.8273 6.59995 11.6576 5.60754 11.2284 4.71816C10.7992 3.82878 10.1278 3.07849 9.29145 2.55346C8.45505 2.02843 7.48752 1.74995 6.49999 1.74999Z" fill="black"/>
<path d="M6.49999 4.08333C5.88115 4.08333 5.28766 4.32916 4.85007 4.76675C4.41249 5.20433 4.16666 5.79782 4.16666 6.41666V8.16666C4.16672 8.684 4.33864 9.18667 4.65539 9.5957C4.97214 10.0047 5.41579 10.297 5.91666 10.4265V11.5727L4.33291 12.9016C4.28703 12.9401 4.25413 12.9918 4.23865 13.0496C4.22317 13.1075 4.22587 13.1687 4.24638 13.2249C4.2669 13.2812 4.30424 13.3298 4.35332 13.3641C4.4024 13.3984 4.46086 13.4167 4.52074 13.4167H8.47924C8.53912 13.4167 8.59757 13.3984 8.64666 13.3641C8.69574 13.3298 8.73308 13.2812 8.75359 13.2249C8.77411 13.1687 8.77681 13.1075 8.76133 13.0496C8.74585 12.9918 8.71294 12.9401 8.66707 12.9016L7.08332 11.5727V10.4265C8.08957 10.1675 8.83332 9.254 8.83332 8.16666V6.41666C8.83332 5.79782 8.58749 5.20433 8.1499 4.76675C7.71232 4.32916 7.11883 4.08333 6.49999 4.08333ZM7.66666 8.16666C7.66666 8.47608 7.54374 8.77283 7.32495 8.99162C7.10615 9.21041 6.80941 9.33333 6.49999 9.33333C6.19057 9.33333 5.89382 9.21041 5.67503 8.99162C5.45624 8.77283 5.33332 8.47608 5.33332 8.16666V6.41666C5.33332 6.10724 5.45624 5.8105 5.67503 5.5917C5.89382 5.37291 6.19057 5.25 6.49999 5.25C6.80941 5.25 7.10615 5.37291 7.32495 5.5917C7.54374 5.8105 7.66666 6.10724 7.66666 6.41666V8.16666Z" fill="black"/>
</svg>
