<svg width="14" height="14" viewBox="0 0 14 14" fill="none" xmlns="http://www.w3.org/2000/svg">
<path d="M0.583374 3.5C0.583374 3.03587 0.767748 2.59075 1.09594 2.26256C1.42413 1.93437 1.86925 1.75 2.33337 1.75H11.6667C12.1308 1.75 12.576 1.93437 12.9041 2.26256C13.2323 2.59075 13.4167 3.03587 13.4167 3.5V10.5C13.4167 10.9641 13.2323 11.4092 12.9041 11.7374C12.576 12.0656 12.1308 12.25 11.6667 12.25H2.33337C1.86925 12.25 1.42413 12.0656 1.09594 11.7374C0.767748 11.4092 0.583374 10.9641 0.583374 10.5V3.5ZM2.33337 2.91667C2.17866 2.91667 2.03029 2.97812 1.92089 3.08752C1.8115 3.19692 1.75004 3.34529 1.75004 3.5V10.5C1.75004 10.6547 1.8115 10.8031 1.92089 10.9125C2.03029 11.0219 2.17866 11.0833 2.33337 11.0833H11.6667C11.8214 11.0833 11.9698 11.0219 12.0792 10.9125C12.1886 10.8031 12.25 10.6547 12.25 10.5V3.5C12.25 3.34529 12.1886 3.19692 12.0792 3.08752C11.9698 2.97812 11.8214 2.91667 11.6667 2.91667H2.33337Z" fill="black"/>
<path d="M5.83337 5.25L8.86437 7L5.83337 8.75V5.25Z" fill="black"/>
</svg>
