<svg width="839" height="472" viewBox="0 0 839 472" fill="none" xmlns="http://www.w3.org/2000/svg">
<g clip-path="url(#clip0_1_6641)">
<rect width="837.318" height="471.237" transform="translate(0.840881)" fill="white"/>
<rect x="0.840881" y="0.0625" width="842.991" height="474.182" fill="url(#paint0_linear_1_6641)"/>
<path d="M223.407 176.111H176.557V216.797H189.079V202.266L212.442 202.411L216.297 192.966H189.079V185.992H219.016L223.407 176.111Z" fill="#F2F0EB"/>
<path d="M259.168 216.797L242.563 176.111H227.319L219.016 196.454L210.713 216.797H223.562L226.665 208.659H243.107L246.211 216.797H259.168ZM234.941 187.154L239.568 199.36H230.259L234.941 187.154Z" fill="#F2F0EB"/>
<path d="M293.083 200.232L274.844 176.111H262.322V216.797H274.572L274.028 192.385L292.266 216.797H304.789V176.111H292.539L293.083 200.232Z" fill="#F2F0EB"/>
<path d="M347.981 217.959C358.761 217.959 367.309 213.425 367.309 204.591C367.309 198.081 363.062 192.443 352.718 191.106L344.66 190.06C342.428 189.77 341.067 188.665 341.067 187.154C341.067 185.178 343.299 183.957 346.947 183.957C351.357 183.957 354.242 185.933 354.514 189.188H366.22C366.22 180.354 358.598 174.948 347.219 174.948C335.132 174.948 328.545 180.586 328.545 188.316C328.545 196.396 334.534 200.464 341.992 201.452L349.941 202.498C353.044 202.905 354.678 204.068 354.678 205.753C354.678 207.613 352.446 208.659 348.253 208.659C343.19 208.659 340.087 206.451 339.815 202.847H327.565C327.837 212.205 335.731 217.959 347.981 217.959Z" fill="#F2F0EB"/>
<path d="M368.789 176.111V185.992H380.494V216.797H393.016V185.992H404.722V176.111H368.789Z" fill="#F2F0EB"/>
<path d="M429.535 217.959C442.547 217.959 450.496 210.577 450.496 198.488V176.111H438.246V197.325C438.246 203.719 435.197 207.206 429.535 207.206C423.873 207.206 420.824 203.719 420.824 197.325V176.111H408.574V198.488C408.574 210.577 416.523 217.959 429.535 217.959Z" fill="#F2F0EB"/>
<path d="M474.431 216.797C489.947 216.797 499.475 209.066 499.475 196.454C499.475 183.841 489.947 176.111 474.431 176.111H454.831V216.797H474.431ZM467.353 185.41H473.886C481.998 185.41 486.953 189.595 486.953 196.454C486.953 203.312 481.998 207.497 473.886 207.497H467.353V185.41Z" fill="#F2F0EB"/>
<path d="M525.308 216.797V204.01L542.73 176.111H529.935L519.591 192.676L508.974 176.111H494.819L512.786 204.01V216.797H525.308Z" fill="#F2F0EB"/>
<rect opacity="0.8" x="559.617" y="181.548" width="102.279" height="17.0321" fill="#9691FF"/>
<rect x="559.621" y="164.568" width="102.279" height="17.0321" fill="#9691FF"/>
<rect opacity="0.6" x="559.617" y="198.59" width="102.279" height="17.0321" fill="#9691FF"/>
<rect opacity="0.4" x="559.617" y="215.616" width="75.0047" height="17.0321" fill="#9691FF"/>
<rect opacity="0.1" x="559.617" y="249.637" width="47.7303" height="17.0321" fill="#9691FF"/>
<rect opacity="0.2" x="559.617" y="232.641" width="75.0047" height="17.0321" fill="#9691FF"/>
<path d="M177.764 255.14C177.692 251.943 179.158 249.78 183.052 247.184C185.528 245.549 186.442 244.444 186.442 243.122C186.442 241.848 185.745 240.79 183.918 240.79C182.115 240.79 181.129 241.968 181.129 244.203H177.74C177.74 240.093 180.048 237.665 183.99 237.665C188.076 237.665 189.999 240.285 189.999 242.905C189.999 245.261 188.701 247.064 185.288 249.395C183.701 250.453 182.86 251.222 182.403 252.039H189.927V255.14H177.764ZM203.737 255.549C198.977 255.549 196.526 251.655 196.526 246.607C196.526 241.559 198.977 237.665 203.737 237.665C208.496 237.665 210.972 241.559 210.972 246.607C210.972 251.655 208.496 255.549 203.737 255.549ZM203.737 252.304C206.092 252.304 207.342 250.237 207.342 246.583C207.342 242.953 206.092 240.91 203.737 240.91C201.381 240.91 200.155 242.953 200.155 246.583C200.155 250.237 201.381 252.304 203.737 252.304ZM217.397 255.14C217.325 251.943 218.792 249.78 222.686 247.184C225.161 245.549 226.075 244.444 226.075 243.122C226.075 241.848 225.378 240.79 223.551 240.79C221.748 240.79 220.763 241.968 220.763 244.203H217.373C217.373 240.093 219.681 237.665 223.623 237.665C227.709 237.665 229.632 240.285 229.632 242.905C229.632 245.261 228.334 247.064 224.921 249.395C223.335 250.453 222.493 251.222 222.037 252.039H229.56V255.14H217.397ZM241.712 255.549C239.14 255.549 236.952 254.419 236.183 253.482V249.612C237.096 251.222 239.308 252.352 241.351 252.352C243.298 252.352 244.476 251.414 244.476 249.876C244.476 248.338 243.418 247.472 240.413 247.472H239.5V245.333L243.634 241.102H236.471V238.074H247.529V241.247L243.61 245.237C246.639 245.814 248.081 247.689 248.081 250.164C248.081 253.145 245.293 255.549 241.712 255.549ZM263.934 255.14V238.074H270.424C274.631 238.074 276.746 240.333 276.746 243.434C276.746 246.511 274.39 248.698 270.184 248.698H267.444V255.14H263.934ZM270.04 245.862C272.203 245.862 273.237 244.9 273.237 243.386C273.237 241.896 272.299 240.91 270.088 240.91H267.444V245.862H270.04ZM291.664 255.549C286.328 255.549 282.554 251.703 282.554 246.583C282.554 241.487 286.328 237.665 291.664 237.665C297 237.665 300.774 241.511 300.774 246.631C300.774 251.703 297 255.549 291.664 255.549ZM291.664 252.28C294.861 252.28 297.097 249.9 297.097 246.631C297.097 243.338 294.861 240.934 291.664 240.934C288.491 240.934 286.232 243.314 286.232 246.583C286.232 249.876 288.491 252.28 291.664 252.28ZM307.934 255.14V238.074H313.775C320.096 238.074 323.365 241.583 323.365 246.607C323.365 251.535 320.265 255.14 313.799 255.14H307.934ZM313.678 252.232C317.741 252.232 319.688 249.876 319.688 246.607C319.688 243.314 317.741 240.982 313.678 240.982H311.443V252.232H313.678ZM338.333 255.549C333.093 255.549 329.535 251.751 329.535 246.583C329.535 241.415 333.093 237.665 338.333 237.665C340.712 237.665 342.371 238.314 343.333 238.987V242.905C342.515 241.896 340.785 240.934 338.669 240.934C335.472 240.934 333.213 243.29 333.213 246.583C333.213 249.9 335.472 252.28 338.669 252.28C340.785 252.28 342.491 251.366 343.333 250.357V254.179C342.203 255.02 340.616 255.549 338.333 255.549ZM348.912 255.14L355.402 238.074H359.897L366.315 255.14H362.493L361.123 251.198H353.912L352.517 255.14H348.912ZM354.945 248.29H360.089L357.541 240.982L354.945 248.29ZM378.178 255.549C375.197 255.549 372.673 254.347 371.663 253.313V248.987C373.01 251.198 375.87 252.376 378.009 252.376C379.908 252.376 380.87 251.607 380.87 250.453C380.87 249.491 380.533 248.914 377.745 248.169L376.327 247.785C373.49 247.04 371.663 245.693 371.663 242.833C371.663 240.141 373.995 237.665 378.274 237.665C380.629 237.665 382.648 238.458 383.658 239.252V243.194C382.841 242.088 380.75 240.862 378.418 240.862C376.255 240.862 375.317 241.799 375.317 242.761C375.317 243.674 375.75 244.107 378.538 244.852L379.956 245.237C382.793 245.982 384.547 247.424 384.547 250.237C384.547 253.217 382.192 255.549 378.178 255.549ZM394.676 255.14V241.078H389.869V238.074H403.041V241.078H398.186V255.14H394.676ZM417.984 255.14V238.074H429.017V241.03H421.493V245.02H428.248V247.953H421.493V252.184H429.257V255.14H417.984ZM436.58 255.14V238.074H442.421C448.743 238.074 452.012 241.583 452.012 246.607C452.012 251.535 448.911 255.14 442.445 255.14H436.58ZM442.325 252.232C446.387 252.232 448.334 249.876 448.334 246.607C448.334 243.314 446.387 240.982 442.325 240.982H440.089V252.232H442.325ZM459.143 255.14V238.074H462.652V255.14H459.143ZM474.276 255.14V241.078H469.469V238.074H482.641V241.078H477.785V255.14H474.276ZM489.48 255.14V238.074H492.99V255.14H489.48ZM509.253 255.549C503.917 255.549 500.143 251.703 500.143 246.583C500.143 241.487 503.917 237.665 509.253 237.665C514.589 237.665 518.363 241.511 518.363 246.631C518.363 251.703 514.589 255.549 509.253 255.549ZM509.253 252.28C512.45 252.28 514.685 249.9 514.685 246.631C514.685 243.338 512.45 240.934 509.253 240.934C506.08 240.934 503.82 243.314 503.82 246.583C503.82 249.876 506.08 252.28 509.253 252.28ZM525.522 255.14V238.074H529.825L536.844 250.309V238.074H540.113V255.14H535.954L528.791 242.689V255.14H525.522Z" fill="#F2F0EB"/>
</g>
<defs>
<linearGradient id="paint0_linear_1_6641" x1="-11.6422" y1="0.0625136" x2="865.82" y2="477.929" gradientUnits="userSpaceOnUse">
<stop offset="0.037056" stop-color="#121212"/>
<stop offset="1" stop-color="#26008D"/>
</linearGradient>
<clipPath id="clip0_1_6641">
<rect width="837.318" height="471.237" fill="white" transform="translate(0.840881)"/>
</clipPath>
</defs>
</svg>
