<svg width="838" height="472" viewBox="0 0 838 472" fill="none" xmlns="http://www.w3.org/2000/svg">
<g clip-path="url(#clip0_1_6118)">
<rect width="837.318" height="471.237" fill="white"/>
<rect x="-9.59924" y="-9.16309" width="858.698" height="486.945" fill="black"/>
<rect x="-9.59924" y="-9.16309" width="858.698" height="486.945" fill="url(#paint0_linear_1_6118)"/>
<path d="M224.017 176.164H177.23V216.795H189.735V202.284L213.066 202.429L216.916 192.997H189.735V186.032H219.631L224.017 176.164Z" fill="#F2F0EB"/>
<path d="M259.729 216.795L243.146 176.164H227.922L219.631 196.48L211.34 216.795H224.171L227.27 208.669H243.69L246.789 216.795H259.729ZM235.534 187.193L240.156 199.382H230.858L235.534 187.193Z" fill="#F2F0EB"/>
<path d="M293.598 200.252L275.384 176.164H262.879V216.795H275.112L274.568 192.417L292.782 216.795H305.287V176.164H293.054L293.598 200.252Z" fill="#F2F0EB"/>
<path d="M348.421 217.956C359.186 217.956 367.723 213.428 367.723 204.606C367.723 198.105 363.482 192.475 353.151 191.14L345.105 190.095C342.876 189.805 341.516 188.702 341.516 187.193C341.516 185.219 343.745 184 347.388 184C351.792 184 354.674 185.974 354.946 189.224H366.635C366.635 180.401 359.023 175.003 347.66 175.003C335.59 175.003 329.011 180.634 329.011 188.353C329.011 196.422 334.992 200.485 342.441 201.471L350.379 202.516C353.478 202.922 355.109 204.083 355.109 205.767C355.109 207.624 352.88 208.669 348.693 208.669C343.637 208.669 340.538 206.463 340.266 202.864H328.033C328.304 212.209 336.188 217.956 348.421 217.956Z" fill="#F2F0EB"/>
<path d="M369.201 176.164V186.032H380.89V216.795H393.395V186.032H405.085V176.164H369.201Z" fill="#F2F0EB"/>
<path d="M429.864 217.956C442.859 217.956 450.797 210.584 450.797 198.511V176.164H438.564V197.35C438.564 203.735 435.519 207.218 429.864 207.218C424.21 207.218 421.165 203.735 421.165 197.35V176.164H408.932V198.511C408.932 210.584 416.87 217.956 429.864 217.956Z" fill="#F2F0EB"/>
<path d="M474.699 216.795C490.194 216.795 499.709 209.075 499.709 196.48C499.709 183.884 490.194 176.164 474.699 176.164H455.126V216.795H474.699ZM467.631 185.451H474.155C482.256 185.451 487.204 189.63 487.204 196.48C487.204 203.329 482.256 207.508 474.155 207.508H467.631V185.451Z" fill="#F2F0EB"/>
<path d="M525.507 216.795V204.025L542.905 176.164H530.128L519.798 192.707L509.196 176.164H495.06L513.002 204.025V216.795H525.507Z" fill="#F2F0EB"/>
<rect opacity="0.8" x="559.769" y="181.595" width="102.14" height="17.009" fill="#FFC864"/>
<rect x="559.774" y="164.637" width="102.14" height="17.009" fill="#FFC864"/>
<rect opacity="0.6" x="559.769" y="198.613" width="102.14" height="17.009" fill="#FFC864"/>
<rect opacity="0.4" x="559.769" y="215.615" width="74.9029" height="17.009" fill="#FFC864"/>
<rect opacity="0.1" x="559.769" y="249.591" width="47.6655" height="17.009" fill="#FFC864"/>
<rect opacity="0.2" x="559.769" y="232.618" width="74.9029" height="17.009" fill="#FFC864"/>
<path d="M176.051 255.389C175.979 252.192 177.445 250.029 181.339 247.433C183.815 245.798 184.728 244.693 184.728 243.371C184.728 242.097 184.031 241.039 182.204 241.039C180.401 241.039 179.416 242.217 179.416 244.452H176.027C176.027 240.342 178.334 237.914 182.276 237.914C186.363 237.914 188.286 240.534 188.286 243.154C188.286 245.51 186.988 247.313 183.574 249.644C181.988 250.702 181.147 251.471 180.69 252.288H188.214V255.389H176.051ZM202.023 255.798C197.264 255.798 194.812 251.904 194.812 246.856C194.812 241.808 197.264 237.914 202.023 237.914C206.783 237.914 209.259 241.808 209.259 246.856C209.259 251.904 206.783 255.798 202.023 255.798ZM202.023 252.553C204.379 252.553 205.629 250.486 205.629 246.832C205.629 243.202 204.379 241.159 202.023 241.159C199.668 241.159 198.442 243.202 198.442 246.832C198.442 250.486 199.668 252.553 202.023 252.553ZM215.684 255.389C215.612 252.192 217.078 250.029 220.972 247.433C223.448 245.798 224.361 244.693 224.361 243.371C224.361 242.097 223.664 241.039 221.837 241.039C220.035 241.039 219.049 242.217 219.049 244.452H215.66C215.66 240.342 217.967 237.914 221.91 237.914C225.996 237.914 227.919 240.534 227.919 243.154C227.919 245.51 226.621 247.313 223.208 249.644C221.621 250.702 220.78 251.471 220.323 252.288H227.847V255.389H215.684ZM234.397 255.389C234.325 252.192 235.791 250.029 239.686 247.433C242.161 245.798 243.075 244.693 243.075 243.371C243.075 242.097 242.378 241.039 240.551 241.039C238.748 241.039 237.763 242.217 237.763 244.452H234.373C234.373 240.342 236.681 237.914 240.623 237.914C244.709 237.914 246.632 240.534 246.632 243.154C246.632 245.51 245.334 247.313 241.921 249.644C240.335 250.702 239.493 251.471 239.037 252.288H246.56V255.389H234.397ZM262.549 255.389V238.323H269.039C273.246 238.323 275.361 240.582 275.361 243.683C275.361 246.76 273.005 248.947 268.799 248.947H266.059V255.389H262.549ZM268.655 246.111C270.818 246.111 271.852 245.149 271.852 243.635C271.852 242.145 270.914 241.159 268.703 241.159H266.059V246.111H268.655ZM290.279 255.798C284.943 255.798 281.169 251.952 281.169 246.832C281.169 241.736 284.943 237.914 290.279 237.914C295.615 237.914 299.389 241.76 299.389 246.88C299.389 251.952 295.615 255.798 290.279 255.798ZM290.279 252.529C293.476 252.529 295.712 250.149 295.712 246.88C295.712 243.587 293.476 241.183 290.279 241.183C287.106 241.183 284.847 243.563 284.847 246.832C284.847 250.125 287.106 252.529 290.279 252.529ZM306.549 255.389V238.323H312.39C318.712 238.323 321.981 241.832 321.981 246.856C321.981 251.784 318.88 255.389 312.414 255.389H306.549ZM312.294 252.481C316.356 252.481 318.303 250.125 318.303 246.856C318.303 243.563 316.356 241.231 312.294 241.231H310.058V252.481H312.294ZM336.948 255.798C331.708 255.798 328.15 252 328.15 246.832C328.15 241.664 331.708 237.914 336.948 237.914C339.328 237.914 340.986 238.563 341.948 239.236V243.154C341.13 242.145 339.4 241.183 337.284 241.183C334.087 241.183 331.828 243.539 331.828 246.832C331.828 250.149 334.087 252.529 337.284 252.529C339.4 252.529 341.106 251.615 341.948 250.606V254.428C340.818 255.269 339.231 255.798 336.948 255.798ZM347.527 255.389L354.017 238.323H358.512L364.93 255.389H361.108L359.738 251.447H352.527L351.133 255.389H347.527ZM353.56 248.539H358.704L356.156 241.231L353.56 248.539ZM376.793 255.798C373.812 255.798 371.288 254.596 370.279 253.562V249.236C371.625 251.447 374.485 252.625 376.624 252.625C378.523 252.625 379.485 251.856 379.485 250.702C379.485 249.74 379.148 249.164 376.36 248.418L374.942 248.034C372.105 247.289 370.279 245.943 370.279 243.082C370.279 240.39 372.61 237.914 376.889 237.914C379.244 237.914 381.264 238.707 382.273 239.501V243.443C381.456 242.337 379.365 241.111 377.033 241.111C374.87 241.111 373.932 242.048 373.932 243.01C373.932 243.923 374.365 244.356 377.153 245.101L378.571 245.486C381.408 246.231 383.163 247.673 383.163 250.486C383.163 253.466 380.807 255.798 376.793 255.798ZM393.291 255.389V241.327H388.484V238.323H401.656V241.327H396.801V255.389H393.291ZM416.599 255.389V238.323H427.632V241.279H420.108V245.269H426.863V248.202H420.108V252.433H427.872V255.389H416.599ZM435.195 255.389V238.323H441.036C447.358 238.323 450.627 241.832 450.627 246.856C450.627 251.784 447.526 255.389 441.06 255.389H435.195ZM440.94 252.481C445.002 252.481 446.949 250.125 446.949 246.856C446.949 243.563 445.002 241.231 440.94 241.231H438.704V252.481H440.94ZM457.758 255.389V238.323H461.267V255.389H457.758ZM472.891 255.389V241.327H468.084V238.323H481.256V241.327H476.401V255.389H472.891ZM488.096 255.389V238.323H491.605V255.389H488.096ZM507.868 255.798C502.532 255.798 498.758 251.952 498.758 246.832C498.758 241.736 502.532 237.914 507.868 237.914C513.204 237.914 516.978 241.76 516.978 246.88C516.978 251.952 513.204 255.798 507.868 255.798ZM507.868 252.529C511.065 252.529 513.3 250.149 513.3 246.88C513.3 243.587 511.065 241.183 507.868 241.183C504.695 241.183 502.436 243.563 502.436 246.832C502.436 250.125 504.695 252.529 507.868 252.529ZM524.137 255.389V238.323H528.44L535.459 250.558V238.323H538.728V255.389H534.57L527.406 242.938V255.389H524.137Z" fill="#F2F0EB"/>
</g>
<defs>
<linearGradient id="paint0_linear_1_6118" x1="-423.895" y1="97.0834" x2="841.027" y2="325.066" gradientUnits="userSpaceOnUse">
<stop offset="0.447917" stop-color="#FFC862" stop-opacity="0"/>
<stop offset="0.953125" stop-color="#FFC862" stop-opacity="0.4"/>
</linearGradient>
<clipPath id="clip0_1_6118">
<rect width="837.318" height="471.237" fill="white"/>
</clipPath>
</defs>
</svg>
