<svg width="838" height="472" viewBox="0 0 838 472" fill="none" xmlns="http://www.w3.org/2000/svg">
<g clip-path="url(#clip0_1_8172)">
<rect width="837.318" height="471.237" transform="translate(0.681755)" fill="white"/>
<rect x="0.681755" y="0.0625" width="842.991" height="474.182" fill="url(#paint0_linear_1_8172)"/>
<rect x="0.681755" y="0.0625" width="842.991" height="474.182" fill="url(#paint1_linear_1_8172)"/>
<path d="M223.248 176.111H176.398V216.797H188.92V202.266L212.283 202.412L216.138 192.967H188.92V185.992H218.857L223.248 176.111Z" fill="#F2F0EB"/>
<path d="M259.009 216.797L242.404 176.111H227.16L218.857 196.454L210.554 216.797H223.403L226.506 208.66H242.948L246.052 216.797H259.009ZM234.782 187.154L239.409 199.36H230.099L234.782 187.154Z" fill="#F2F0EB"/>
<path d="M292.924 200.232L274.685 176.111H262.163V216.797H274.413L273.869 192.386L292.107 216.797H304.629V176.111H292.38L292.924 200.232Z" fill="#F2F0EB"/>
<path d="M347.822 217.959C358.602 217.959 367.15 213.426 367.15 204.591C367.15 198.082 362.903 192.444 352.559 191.107L344.501 190.061C342.269 189.77 340.908 188.666 340.908 187.154C340.908 185.178 343.14 183.958 346.788 183.958C351.198 183.958 354.083 185.934 354.355 189.189H366.061C366.061 180.354 358.439 174.949 347.06 174.949C334.973 174.949 328.386 180.587 328.386 188.317C328.386 196.396 334.374 200.465 341.833 201.453L349.782 202.499C352.885 202.906 354.519 204.068 354.519 205.754C354.519 207.614 352.286 208.66 348.094 208.66C343.031 208.66 339.928 206.451 339.655 202.848H327.406C327.678 212.205 335.572 217.959 347.822 217.959Z" fill="#F2F0EB"/>
<path d="M368.63 176.111V185.992H380.335V216.797H392.857V185.992H404.563V176.111H368.63Z" fill="#F2F0EB"/>
<path d="M429.376 217.959C442.388 217.959 450.337 210.578 450.337 198.488V176.111H438.087V197.326C438.087 203.719 435.038 207.207 429.376 207.207C423.714 207.207 420.665 203.719 420.665 197.326V176.111H408.415V198.488C408.415 210.578 416.364 217.959 429.376 217.959Z" fill="#F2F0EB"/>
<path d="M474.271 216.797C489.788 216.797 499.316 209.067 499.316 196.454C499.316 183.841 489.788 176.111 474.271 176.111H454.672V216.797H474.271ZM467.194 185.411H473.727C481.839 185.411 486.793 189.596 486.793 196.454C486.793 203.313 481.839 207.497 473.727 207.497H467.194V185.411Z" fill="#F2F0EB"/>
<path d="M525.149 216.797V204.01L542.571 176.111H529.776L519.432 192.676L508.815 176.111H494.66L512.626 204.01V216.797H525.149Z" fill="#F2F0EB"/>
<rect opacity="0.8" x="559.458" y="181.548" width="102.279" height="17.0321" fill="#CFF56A"/>
<rect x="559.461" y="164.568" width="102.279" height="17.0321" fill="#CFF56A"/>
<rect opacity="0.6" x="559.458" y="198.59" width="102.279" height="17.0321" fill="#CFF56A"/>
<rect opacity="0.4" x="559.458" y="215.616" width="75.0047" height="17.0321" fill="#CFF56A"/>
<rect opacity="0.1" x="559.458" y="249.637" width="47.7303" height="17.0321" fill="#CFF56A"/>
<rect opacity="0.2" x="559.458" y="232.641" width="75.0047" height="17.0321" fill="#CFF56A"/>
<path d="M177.605 255.14C177.533 251.943 178.999 249.78 182.893 247.184C185.369 245.549 186.282 244.444 186.282 243.122C186.282 241.848 185.585 240.79 183.759 240.79C181.956 240.79 180.97 241.968 180.97 244.203H177.581C177.581 240.093 179.889 237.665 183.831 237.665C187.917 237.665 189.84 240.285 189.84 242.905C189.84 245.261 188.542 247.064 185.129 249.395C183.542 250.453 182.701 251.222 182.244 252.039H189.768V255.14H177.605ZM203.578 255.549C198.818 255.549 196.366 251.655 196.366 246.607C196.366 241.559 198.818 237.665 203.578 237.665C208.337 237.665 210.813 241.559 210.813 246.607C210.813 251.655 208.337 255.549 203.578 255.549ZM203.578 252.304C205.933 252.304 207.183 250.237 207.183 246.583C207.183 242.953 205.933 240.91 203.578 240.91C201.222 240.91 199.996 242.953 199.996 246.583C199.996 250.237 201.222 252.304 203.578 252.304ZM217.238 255.14C217.166 251.943 218.632 249.78 222.527 247.184C225.002 245.549 225.916 244.444 225.916 243.122C225.916 241.848 225.219 240.79 223.392 240.79C221.589 240.79 220.604 241.968 220.604 244.203H217.214C217.214 240.093 219.522 237.665 223.464 237.665C227.55 237.665 229.473 240.285 229.473 242.905C229.473 245.261 228.175 247.064 224.762 249.395C223.176 250.453 222.334 251.222 221.878 252.039H229.401V255.14H217.238ZM243.624 255.14V251.559H235.548V248.482L242.879 238.074H246.869L239.369 248.602H243.624V244.828H247.013V248.602H249.609V251.559H247.013V255.14H243.624ZM264.902 255.14V238.074H271.392C275.598 238.074 277.714 240.333 277.714 243.434C277.714 246.511 275.358 248.698 271.151 248.698H268.411V255.14H264.902ZM271.007 245.862C273.171 245.862 274.204 244.9 274.204 243.386C274.204 241.896 273.267 240.91 271.055 240.91H268.411V245.862H271.007ZM292.632 255.549C287.295 255.549 283.522 251.703 283.522 246.583C283.522 241.487 287.295 237.665 292.632 237.665C297.968 237.665 301.742 241.511 301.742 246.631C301.742 251.703 297.968 255.549 292.632 255.549ZM292.632 252.28C295.829 252.28 298.064 249.9 298.064 246.631C298.064 243.338 295.829 240.934 292.632 240.934C289.459 240.934 287.199 243.314 287.199 246.583C287.199 249.876 289.459 252.28 292.632 252.28ZM308.901 255.14V238.074H314.742C321.064 238.074 324.333 241.583 324.333 246.607C324.333 251.535 321.232 255.14 314.766 255.14H308.901ZM314.646 252.232C318.708 252.232 320.655 249.876 320.655 246.607C320.655 243.314 318.708 240.982 314.646 240.982H312.411V252.232H314.646ZM339.3 255.549C334.06 255.549 330.503 251.751 330.503 246.583C330.503 241.415 334.06 237.665 339.3 237.665C341.68 237.665 343.339 238.314 344.3 238.987V242.905C343.483 241.896 341.752 240.934 339.637 240.934C336.44 240.934 334.18 243.29 334.18 246.583C334.18 249.9 336.44 252.28 339.637 252.28C341.752 252.28 343.459 251.366 344.3 250.357V254.179C343.17 255.02 341.584 255.549 339.3 255.549ZM349.879 255.14L356.369 238.074H360.864L367.282 255.14H363.46L362.09 251.198H354.879L353.485 255.14H349.879ZM355.913 248.29H361.057L358.509 240.982L355.913 248.29ZM379.145 255.549C376.165 255.549 373.641 254.347 372.631 253.313V248.987C373.977 251.198 376.838 252.376 378.977 252.376C380.876 252.376 381.837 251.607 381.837 250.453C381.837 249.491 381.501 248.914 378.712 248.169L377.294 247.785C374.458 247.04 372.631 245.693 372.631 242.833C372.631 240.141 374.963 237.665 379.241 237.665C381.597 237.665 383.616 238.458 384.626 239.252V243.194C383.808 242.088 381.717 240.862 379.385 240.862C377.222 240.862 376.285 241.799 376.285 242.761C376.285 243.674 376.717 244.107 379.506 244.852L380.924 245.237C383.76 245.982 385.515 247.424 385.515 250.237C385.515 253.217 383.159 255.549 379.145 255.549ZM395.644 255.14V241.078H390.836V238.074H404.009V241.078H399.153V255.14H395.644ZM418.951 255.14V238.074H429.984V241.03H422.461V245.02H429.215V247.953H422.461V252.184H430.225V255.14H418.951ZM437.547 255.14V238.074H443.388C449.71 238.074 452.979 241.583 452.979 246.607C452.979 251.535 449.878 255.14 443.412 255.14H437.547ZM443.292 252.232C447.355 252.232 449.302 249.876 449.302 246.607C449.302 243.314 447.355 240.982 443.292 240.982H441.057V252.232H443.292ZM460.11 255.14V238.074H463.62V255.14H460.11ZM475.244 255.14V241.078H470.436V238.074H483.609V241.078H478.753V255.14H475.244ZM490.448 255.14V238.074H493.958V255.14H490.448ZM510.22 255.549C504.884 255.549 501.11 251.703 501.11 246.583C501.11 241.487 504.884 237.665 510.22 237.665C515.557 237.665 519.331 241.511 519.331 246.631C519.331 251.703 515.557 255.549 510.22 255.549ZM510.22 252.28C513.417 252.28 515.653 249.9 515.653 246.631C515.653 243.338 513.417 240.934 510.22 240.934C507.047 240.934 504.788 243.314 504.788 246.583C504.788 249.876 507.047 252.28 510.22 252.28ZM526.49 255.14V238.074H530.793L537.811 250.309V238.074H541.08V255.14H536.922L529.759 242.689V255.14H526.49Z" fill="#F2F0EB"/>
</g>
<defs>
<linearGradient id="paint0_linear_1_8172" x1="-11.8014" y1="0.0625136" x2="865.661" y2="477.929" gradientUnits="userSpaceOnUse">
<stop offset="0.037056" stop-color="#121212"/>
<stop offset="1" stop-color="#26008D"/>
</linearGradient>
<linearGradient id="paint1_linear_1_8172" x1="0.681767" y1="8.85218" x2="733.934" y2="527.796" gradientUnits="userSpaceOnUse">
<stop stop-color="#121212"/>
<stop offset="1" stop-color="#3B4F05"/>
</linearGradient>
<clipPath id="clip0_1_8172">
<rect width="837.318" height="471.237" fill="white" transform="translate(0.681755)"/>
</clipPath>
</defs>
</svg>
