<svg width="112" height="38" viewBox="0 0 112 38" fill="none" xmlns="http://www.w3.org/2000/svg"><g clip-path="url(#clip0_1753_7067)"><path d="M102.763 0.785079H9.66436C9.32501 0.785079 8.98972 0.785079 8.65127 0.786935C8.36795 0.788791 8.08688 0.794184 7.80084 0.798723C7.17943 0.806058 6.55948 0.860891 5.94638 0.962748C5.33414 1.06682 4.74108 1.26303 4.18725 1.54474C3.6341 1.82883 3.12868 2.19797 2.68931 2.63878C2.24763 3.07835 1.87946 3.58644 1.59895 4.1435C1.31766 4.69945 1.12262 5.2952 1.02056 5.91018C0.917519 6.52439 0.862074 7.14567 0.854718 7.76846C0.846131 8.05305 0.845224 8.33859 0.840698 8.62322V30.0782C0.845224 30.3664 0.846131 30.6456 0.854718 30.9339C0.862076 31.5566 0.917521 32.1779 1.02056 32.7921C1.12234 33.4074 1.31739 34.0035 1.59895 34.5597C1.87933 35.1149 2.24755 35.6209 2.68931 36.0581C3.12701 36.5008 3.63276 36.8702 4.18725 37.1521C4.74107 37.4346 5.33407 37.632 5.94638 37.7377C6.55958 37.8387 7.17947 37.8936 7.80084 37.9018C8.08688 37.9081 8.36795 37.9117 8.65127 37.9117C8.98971 37.9136 9.32502 37.9136 9.66436 37.9136H102.763C103.095 37.9136 103.433 37.9136 103.766 37.9117C104.048 37.9117 104.337 37.9081 104.619 37.9018C105.239 37.894 105.858 37.8391 106.47 37.7377C107.084 37.6312 107.679 37.4339 108.236 37.1521C108.79 36.8701 109.295 36.5007 109.732 36.0581C110.173 35.6192 110.542 35.1136 110.826 34.5597C111.105 34.0031 111.298 33.407 111.399 32.7921C111.502 32.1778 111.559 31.5567 111.57 30.9339C111.574 30.6456 111.574 30.3664 111.574 30.0782C111.581 29.7409 111.581 29.4056 111.581 29.0629V9.63663C111.581 9.29671 111.581 8.95951 111.574 8.62322C111.574 8.33859 111.574 8.05305 111.57 7.76843C111.559 7.14558 111.502 6.52443 111.399 5.91015C111.298 5.29552 111.105 4.69982 110.826 4.14346C110.254 3.02689 109.349 2.11801 108.236 1.54465C107.679 1.26363 107.084 1.06748 106.47 0.962664C105.858 0.860359 105.239 0.805506 104.619 0.798593C104.337 0.794064 104.048 0.788624 103.766 0.786814C103.433 0.784958 103.095 0.784958 102.763 0.784958V0.785079Z" fill="white"></path><path d="M8.65647 37.1014C8.37451 37.1014 8.09936 37.0978 7.81961 37.0914C7.24009 37.0839 6.66193 37.0333 6.08986 36.94C5.55643 36.8479 5.03969 36.6765 4.55666 36.4315C4.07807 36.1885 3.64156 35.8699 3.26384 35.4879C2.88066 35.1103 2.56164 34.6725 2.31943 34.1916C2.07455 33.7076 1.90508 33.1889 1.81692 32.6534C1.72172 32.078 1.67021 31.4962 1.66284 30.913C1.65697 30.7172 1.64929 30.0654 1.64929 30.0654V8.62321C1.64929 8.62321 1.65747 7.98144 1.66289 7.79289C1.66994 7.21061 1.72115 6.6297 1.81607 6.05521C1.90439 5.51826 2.074 4.998 2.31901 4.51243C2.56033 4.03191 2.87757 3.59371 3.25845 3.21484C3.63889 2.83236 4.0768 2.51211 4.55621 2.26577C5.03812 2.02154 5.55389 1.85134 6.08624 1.76088C6.66019 1.66672 7.24036 1.61582 7.82189 1.60859L8.65692 1.59726H103.762L104.607 1.60905C105.183 1.61592 105.758 1.66636 106.327 1.75997C106.864 1.85157 107.386 2.02295 107.873 2.26849C108.833 2.76494 109.615 3.55037 110.108 4.5147C110.349 4.99691 110.516 5.51293 110.603 6.04524C110.699 6.62445 110.753 7.20992 110.764 7.79697C110.767 8.05984 110.767 8.3422 110.767 8.62321C110.774 8.97129 110.774 9.3026 110.774 9.63662V29.0629C110.774 29.4001 110.774 29.7291 110.767 30.0609C110.767 30.3627 110.767 30.6393 110.763 30.9238C110.752 31.5004 110.699 32.0754 110.605 32.6443C110.519 33.1836 110.35 33.7064 110.105 34.1944C109.861 34.67 109.544 35.1041 109.165 35.4806C108.787 35.8647 108.35 36.1852 107.87 36.4297C107.384 36.6766 106.864 36.8487 106.327 36.94C105.755 37.0338 105.176 37.0844 104.597 37.0914C104.326 37.0978 104.042 37.1014 103.766 37.1014L102.763 37.1032L8.65647 37.1014Z" fill="#121212"></path><path d="M23.7592 19.6281C23.7691 18.8534 23.9743 18.0938 24.3556 17.4199C24.7369 16.7461 25.2819 16.1799 25.94 15.7741C25.5219 15.1753 24.9704 14.6825 24.3293 14.3348C23.6881 13.9871 22.975 13.7942 22.2465 13.7713C20.6924 13.6077 19.1859 14.704 18.394 14.704C17.5868 14.704 16.3675 13.7876 15.0546 13.8147C14.2053 13.8422 13.3777 14.0899 12.6523 14.5336C11.9268 14.9774 11.3284 15.602 10.9152 16.3467C9.12544 19.4548 10.4604 24.0225 12.1749 26.5349C13.0327 27.7651 14.0352 29.1392 15.3469 29.0905C16.6306 29.0371 17.11 28.2695 18.6594 28.2695C20.1945 28.2695 20.6443 29.0905 21.9826 29.0595C23.36 29.0371 24.2278 27.8238 25.0555 26.582C25.6718 25.7054 26.1461 24.7366 26.4607 23.7115C25.6605 23.372 24.9776 22.8038 24.4972 22.0776C24.0168 21.3515 23.7601 20.4996 23.7592 19.6281V19.6281Z" fill="white"></path><path d="M21.2304 12.119C21.9814 11.2147 22.3514 10.0524 22.2618 8.87897C21.1144 8.99984 20.0546 9.54986 19.2934 10.4194C18.9213 10.8442 18.6362 11.3385 18.4546 11.8738C18.273 12.4092 18.1984 12.9752 18.235 13.5395C18.8089 13.5454 19.3767 13.4207 19.8955 13.1746C20.4144 12.9286 20.8708 12.5676 21.2304 12.119Z" fill="white"></path><path d="M39.9849 25.9762H35.6045L34.5525 29.0917H32.6971L36.8462 17.5651H38.7739L42.9229 29.0917H41.0359L39.9849 25.9762ZM36.0581 24.5385H39.5303L37.8187 19.4823H37.7708L36.0581 24.5385Z" fill="white"></path><path d="M51.8835 24.8903C51.8835 27.5018 50.4899 29.1796 48.3869 29.1796C47.8542 29.2076 47.3244 29.0845 46.8581 28.8245C46.3919 28.5644 46.0081 28.178 45.7507 27.7093H45.7109V31.8718H43.9911V20.6879H45.6558V22.0857H45.6874C45.9567 21.6193 46.347 21.2348 46.8167 20.9732C47.2865 20.7116 47.8182 20.5826 48.3553 20.6C50.4817 20.6 51.8835 22.286 51.8835 24.8903ZM50.1157 24.8903C50.1157 23.1889 49.2391 22.0703 47.9016 22.0703C46.5876 22.0703 45.7037 23.2124 45.7037 24.8903C45.7037 26.5835 46.5876 27.7175 47.9016 27.7175C49.2391 27.7175 50.1157 26.6071 50.1157 24.8903Z" fill="white"></path><path d="M61.1032 24.8903C61.1032 27.5018 59.7096 29.1796 57.6066 29.1796C57.0739 29.2076 56.5441 29.0845 56.0779 28.8245C55.6116 28.5644 55.2278 28.178 54.9704 27.7093H54.9306V31.8718H53.2108V20.6879H54.8755V22.0857H54.9071C55.1764 21.6193 55.5667 21.2348 56.0364 20.9732C56.5062 20.7116 57.0379 20.5826 57.575 20.6C59.7015 20.6 61.1032 22.286 61.1032 24.8903ZM59.3355 24.8903C59.3355 23.1888 58.4588 22.0703 57.1213 22.0703C55.8073 22.0703 54.9234 23.2124 54.9234 24.8903C54.9234 26.5835 55.8073 27.7175 57.1213 27.7175C58.4589 27.7175 59.3355 26.6071 59.3355 24.8903H59.3355Z" fill="white"></path><path d="M67.2013 25.8801C67.3287 27.0232 68.4358 27.7737 69.9487 27.7737C71.3983 27.7737 72.4412 27.0232 72.4412 25.9925C72.4412 25.0978 71.8122 24.5621 70.3228 24.195L68.8335 23.8351C66.7232 23.3239 65.7436 22.334 65.7436 20.7278C65.7436 18.739 67.4715 17.373 69.9252 17.373C72.3535 17.373 74.0182 18.739 74.0742 20.7278H72.3381C72.2342 19.5775 71.2862 18.8832 69.9008 18.8832C68.5153 18.8832 67.5673 19.5857 67.5673 20.6082C67.5673 21.4231 68.1728 21.9026 69.654 22.2697L70.9202 22.5815C73.278 23.1408 74.2577 24.0908 74.2577 25.7767C74.2577 27.9332 72.5451 29.2838 69.8212 29.2838C67.2727 29.2838 65.552 27.9649 65.4408 25.8801L67.2013 25.8801Z" fill="white"></path><path d="M77.9671 18.6993V20.6881H79.5603V22.0541H77.9671V26.687C77.9671 27.4068 78.2861 27.7421 78.9865 27.7421C79.1756 27.7388 79.3645 27.7255 79.5522 27.7022V29.0601C79.2373 29.1191 78.9173 29.1458 78.597 29.1399C76.9007 29.1399 76.2391 28.5008 76.2391 26.871V22.0541H75.0209V20.6881H76.2391V18.6993H77.9671Z" fill="white"></path><path d="M80.4833 24.8904C80.4833 22.2463 82.0359 20.5847 84.457 20.5847C86.8863 20.5847 88.4317 22.2462 88.4317 24.8904C88.4317 27.5418 86.8944 29.1961 84.457 29.1961C82.0205 29.1961 80.4833 27.5418 80.4833 24.8904ZM86.6793 24.8904C86.6793 23.0766 85.8506 22.006 84.457 22.006C83.0634 22.006 82.2356 23.0847 82.2356 24.8904C82.2356 26.7115 83.0634 27.7738 84.457 27.7738C85.8506 27.7738 86.6793 26.7115 86.6793 24.8904H86.6793Z" fill="white"></path><path d="M89.8524 20.6881H91.4927V22.1185H91.5325C91.6435 21.6718 91.9044 21.277 92.2714 21.0005C92.6384 20.724 93.0892 20.5826 93.5478 20.6002C93.746 20.5995 93.9437 20.6211 94.1371 20.6645V22.278C93.8869 22.2014 93.6259 22.1661 93.3643 22.1738C93.1145 22.1636 92.8654 22.2078 92.6342 22.3033C92.403 22.3988 92.1951 22.5434 92.0249 22.7271C91.8546 22.9107 91.726 23.1292 91.6479 23.3675C91.5697 23.6057 91.5439 23.8581 91.5722 24.1073V29.0919H89.8524L89.8524 20.6881Z" fill="white"></path><path d="M102.064 26.6235C101.833 28.1491 100.352 29.1961 98.4565 29.1961C96.0191 29.1961 94.5062 27.5581 94.5062 24.9303C94.5062 22.2943 96.0272 20.5847 98.3842 20.5847C100.702 20.5847 102.16 22.1819 102.16 24.7299V25.321H96.2423V25.4252C96.215 25.7345 96.2536 26.046 96.3556 26.3392C96.4575 26.6324 96.6205 26.9004 96.8337 27.1256C97.0469 27.3507 97.3054 27.5278 97.592 27.645C97.8787 27.7622 98.1869 27.817 98.4962 27.8055C98.9026 27.8437 99.3105 27.7493 99.6591 27.5364C100.008 27.3234 100.279 27.0032 100.431 26.6235L102.064 26.6235ZM96.2504 24.1154H100.439C100.455 23.8373 100.413 23.559 100.316 23.298C100.219 23.0369 100.069 22.7988 99.8763 22.5985C99.6834 22.3983 99.4512 22.2402 99.1944 22.1341C98.9376 22.0281 98.6618 21.9765 98.3842 21.9825C98.1041 21.9808 97.8265 22.0348 97.5673 22.1413C97.3082 22.2478 97.0726 22.4047 96.8742 22.603C96.6759 22.8013 96.5186 23.037 96.4115 23.2966C96.3045 23.5562 96.2497 23.8345 96.2504 24.1154V24.1154Z" fill="white"></path><path d="M35.847 8.88933C36.2075 8.86337 36.5693 8.91801 36.9063 9.04929C37.2433 9.18057 37.547 9.38522 37.7955 9.64848C38.0441 9.91175 38.2313 10.2271 38.3436 10.5717C38.456 10.9163 38.4907 11.2816 38.4452 11.6413C38.4452 13.4107 37.4918 14.4278 35.847 14.4278H33.8524V8.88933H35.847ZM34.7101 13.6446H35.7512C36.0088 13.66 36.2666 13.6176 36.5059 13.5205C36.7452 13.4234 36.9598 13.274 37.1343 13.0832C37.3087 12.8924 37.4385 12.665 37.5143 12.4175C37.59 12.17 37.6098 11.9087 37.5722 11.6526C37.6071 11.3975 37.5853 11.1378 37.5084 10.8922C37.4315 10.6465 37.3013 10.4209 37.1273 10.2316C36.9532 10.0424 36.7396 9.89402 36.5017 9.79727C36.2638 9.70051 36.0075 9.65774 35.7512 9.672H34.7101V13.6446Z" fill="white"></path><path d="M39.412 12.336C39.3858 12.0613 39.4171 11.7842 39.504 11.5224C39.5908 11.2605 39.7313 11.0198 39.9163 10.8156C40.1013 10.6114 40.3269 10.4483 40.5784 10.3367C40.83 10.225 41.1021 10.1673 41.3772 10.1673C41.6523 10.1673 41.9244 10.225 42.1759 10.3367C42.4275 10.4483 42.653 10.6114 42.8381 10.8156C43.0231 11.0198 43.1636 11.2605 43.2504 11.5224C43.3372 11.7842 43.3686 12.0613 43.3424 12.336C43.3691 12.611 43.3381 12.8885 43.2515 13.1507C43.1649 13.413 43.0245 13.6541 42.8394 13.8587C42.6544 14.0633 42.4287 14.2268 42.1768 14.3387C41.925 14.4506 41.6526 14.5084 41.3772 14.5084C41.1018 14.5084 40.8294 14.4506 40.5775 14.3387C40.3257 14.2268 40.1 14.0633 39.9149 13.8587C39.7298 13.6541 39.5895 13.413 39.5029 13.1507C39.4163 12.8885 39.3853 12.611 39.412 12.336V12.336ZM42.4965 12.336C42.4965 11.43 42.0907 10.9002 41.3785 10.9002C40.6637 10.9002 40.2615 11.43 40.2615 12.336C40.2615 13.2493 40.6637 13.775 41.3785 13.775C42.0907 13.775 42.4965 13.2456 42.4965 12.336H42.4965Z" fill="white"></path><path d="M48.5686 14.4276H47.7155L46.8542 11.3493H46.7892L45.9315 14.4276H45.0865L43.9379 10.248H44.772L45.5185 13.4373H45.58L46.4367 10.248H47.2257L48.0824 13.4373H48.1475L48.8904 10.248H49.7128L48.5686 14.4276Z" fill="white"></path><path d="M50.6791 10.2479H51.4708V10.9119H51.5322C51.6365 10.6734 51.8123 10.4735 52.0352 10.34C52.2581 10.2065 52.517 10.1461 52.7758 10.1672C52.9785 10.1519 53.1821 10.1826 53.3714 10.2569C53.5608 10.3313 53.731 10.4474 53.8695 10.5967C54.0081 10.746 54.1113 10.9246 54.1717 11.1194C54.232 11.3141 54.2479 11.52 54.2181 11.7218V14.4275H53.3957V11.9289C53.3957 11.2572 53.1047 10.9232 52.4965 10.9232C52.3588 10.9168 52.2214 10.9403 52.0936 10.9921C51.9659 11.0439 51.8508 11.1228 51.7563 11.2234C51.6618 11.324 51.5901 11.4439 51.5461 11.5749C51.5021 11.7059 51.4869 11.8449 51.5015 11.9824V14.4276H50.6791L50.6791 10.2479Z" fill="white"></path><path d="M55.5306 8.61635H56.353V14.4276H55.5306V8.61635Z" fill="white"></path><path d="M57.4955 12.3361C57.4693 12.0614 57.5006 11.7842 57.5875 11.5224C57.6744 11.2606 57.8148 11.0198 57.9999 10.8156C58.1849 10.6114 58.4105 10.4483 58.6621 10.3367C58.9137 10.225 59.1858 10.1673 59.4609 10.1673C59.736 10.1673 60.0081 10.225 60.2597 10.3367C60.5113 10.4483 60.7368 10.6114 60.9219 10.8156C61.1069 11.0198 61.2474 11.2606 61.3343 11.5224C61.4211 11.7842 61.4525 12.0614 61.4263 12.3361C61.453 12.611 61.422 12.8886 61.3353 13.1508C61.2487 13.413 61.1083 13.6542 60.9232 13.8588C60.7381 14.0634 60.5124 14.2269 60.2606 14.3387C60.0087 14.4506 59.7363 14.5084 59.4609 14.5084C59.1855 14.5084 58.9131 14.4506 58.6612 14.3387C58.4094 14.2269 58.1837 14.0634 57.9986 13.8588C57.8135 13.6542 57.6731 13.413 57.5864 13.1508C57.4998 12.8886 57.4688 12.611 57.4955 12.3361V12.3361ZM60.5799 12.3361C60.5799 11.4301 60.1741 10.9003 59.462 10.9003C58.7472 10.9003 58.345 11.4301 58.345 12.3361C58.345 13.2493 58.7472 13.7751 59.462 13.7751C60.1742 13.7751 60.5799 13.2457 60.5799 12.3361H60.5799Z" fill="white"></path><path d="M62.2894 13.2457C62.2894 12.4933 62.8479 12.0596 63.8393 11.9979L64.9681 11.9327V11.5719C64.9681 11.1304 64.6771 10.8812 64.115 10.8812C63.6559 10.8812 63.3378 11.0502 63.2465 11.3457H62.4503C62.5343 10.6278 63.2076 10.1673 64.1529 10.1673C65.1977 10.1673 65.7869 10.689 65.7869 11.5719V14.4277H64.9952V13.8403H64.9302C64.7981 14.051 64.6126 14.2228 64.3927 14.3381C64.1728 14.4534 63.9263 14.508 63.6785 14.4966C63.5035 14.5148 63.3267 14.4961 63.1594 14.4416C62.9922 14.3871 62.8381 14.2981 62.7073 14.1802C62.5764 14.0624 62.4716 13.9183 62.3996 13.7573C62.3277 13.5964 62.2901 13.4221 62.2894 13.2457V13.2457ZM64.9681 12.8885V12.5391L63.9505 12.6043C63.3766 12.6429 63.1163 12.8387 63.1163 13.2071C63.1163 13.5833 63.4417 13.8022 63.8891 13.8022C64.0202 13.8155 64.1526 13.8023 64.2784 13.7632C64.4043 13.7241 64.521 13.6601 64.6217 13.5748C64.7224 13.4896 64.8049 13.3849 64.8644 13.267C64.924 13.1491 64.9592 13.0204 64.9681 12.8885V12.8885Z" fill="white"></path><path d="M66.8685 12.336C66.8685 11.0153 67.5454 10.1786 68.5983 10.1786C68.8587 10.1666 69.1172 10.2292 69.3435 10.359C69.5698 10.4889 69.7545 10.6806 69.8762 10.9119H69.9376V8.61635H70.76V14.4276H69.972V13.7673H69.9069C69.7759 13.997 69.5847 14.1864 69.354 14.3149C69.1233 14.4435 68.862 14.5063 68.5983 14.4965C67.5382 14.4966 66.8685 13.6599 66.8685 12.336ZM67.7181 12.336C67.7181 13.2225 68.1347 13.756 68.8315 13.756C69.5246 13.756 69.953 13.2148 69.953 12.3396C69.953 11.4685 69.5201 10.9197 68.8315 10.9197C68.1392 10.9197 67.718 11.4567 67.718 12.336H67.7181Z" fill="white"></path><path d="M74.164 12.336C74.1378 12.0613 74.1691 11.7842 74.2559 11.5224C74.3428 11.2605 74.4832 11.0198 74.6682 10.8156C74.8533 10.6114 75.0788 10.4483 75.3304 10.3367C75.582 10.225 75.854 10.1673 76.1291 10.1673C76.4042 10.1673 76.6763 10.225 76.9279 10.3367C77.1795 10.4483 77.405 10.6114 77.59 10.8156C77.7751 11.0198 77.9155 11.2605 78.0023 11.5224C78.0892 11.7842 78.1205 12.0613 78.0943 12.336C78.121 12.611 78.0901 12.8885 78.0034 13.1507C77.9168 13.413 77.7765 13.6541 77.5914 13.8587C77.4063 14.0633 77.1806 14.2268 76.9288 14.3387C76.6769 14.4506 76.4046 14.5084 76.1291 14.5084C75.8537 14.5084 75.5813 14.4506 75.3295 14.3387C75.0777 14.2268 74.852 14.0633 74.6669 13.8587C74.4818 13.6541 74.3414 13.413 74.2548 13.1507C74.1682 12.8885 74.1373 12.611 74.164 12.336V12.336ZM77.2484 12.336C77.2484 11.43 76.8426 10.9002 76.1305 10.9002C75.4156 10.9002 75.0135 11.43 75.0135 12.336C75.0135 13.2493 75.4157 13.775 76.1305 13.775C76.8426 13.775 77.2484 13.2456 77.2484 12.336Z" fill="white"></path><path d="M79.1952 10.2479H79.9869V10.9119H80.0483C80.1526 10.6734 80.3284 10.4735 80.5513 10.34C80.7742 10.2065 81.0331 10.1461 81.2919 10.1672C81.4946 10.1519 81.6982 10.1826 81.8876 10.2569C82.0769 10.3313 82.2471 10.4474 82.3857 10.5967C82.5242 10.746 82.6274 10.9246 82.6878 11.1194C82.7481 11.3141 82.764 11.52 82.7342 11.7218V14.4275H81.9118V11.9289C81.9118 11.2572 81.6208 10.9232 81.0126 10.9232C80.875 10.9168 80.7375 10.9403 80.6098 10.9921C80.482 11.0439 80.3669 11.1228 80.2724 11.2234C80.1779 11.324 80.1062 11.4439 80.0622 11.5749C80.0182 11.7059 80.003 11.8449 80.0176 11.9824V14.4276H79.1952V10.2479Z" fill="white"></path><path d="M87.3817 9.20741V10.2671H88.2845V10.9619H87.3817V13.1111C87.3817 13.5489 87.5615 13.7406 87.9709 13.7406C88.0757 13.7403 88.1804 13.7339 88.2845 13.7216V14.4087C88.1368 14.4352 87.9872 14.4493 87.8372 14.4508C86.9226 14.4508 86.5584 14.1281 86.5584 13.3223V10.9618H85.8969V10.267H86.5584V9.20741H87.3817Z" fill="white"></path><path d="M89.4081 8.61635H90.2233V10.9197H90.2883C90.3976 10.679 90.5783 10.4779 90.8057 10.3439C91.0331 10.2099 91.2961 10.1495 91.5589 10.1709C91.7606 10.1599 91.9623 10.1937 92.1495 10.2698C92.3367 10.346 92.5048 10.4627 92.6419 10.6115C92.779 10.7603 92.8816 10.9376 92.9425 11.1308C93.0033 11.324 93.021 11.5283 92.9941 11.7291V14.4277H92.1708V11.9326C92.1708 11.265 91.8608 10.9269 91.2798 10.9269C91.1384 10.9153 90.9962 10.9348 90.8632 10.984C90.7301 11.0333 90.6094 11.1111 90.5095 11.212C90.4095 11.3129 90.3328 11.4345 90.2846 11.5683C90.2364 11.7021 90.218 11.8449 90.2305 11.9865V14.4276H89.4081L89.4081 8.61635Z" fill="white"></path><path d="M97.7883 13.2992C97.6766 13.6812 97.4345 14.0116 97.1044 14.2327C96.7743 14.4538 96.3772 14.5514 95.9827 14.5084C95.7081 14.5157 95.4353 14.463 95.1831 14.3539C94.9309 14.2448 94.7054 14.0819 94.5223 13.8767C94.3391 13.6714 94.2027 13.4286 94.1225 13.1652C94.0422 12.9017 94.0201 12.6239 94.0577 12.3511C94.0211 12.0774 94.0436 11.799 94.1237 11.5347C94.2037 11.2705 94.3394 11.0266 94.5216 10.8195C94.7038 10.6125 94.9282 10.4471 95.1796 10.3346C95.4311 10.2221 95.7037 10.1651 95.979 10.1674C97.1385 10.1674 97.838 10.962 97.838 12.2745V12.5623H94.8954V12.6085C94.8826 12.7619 94.9018 12.9163 94.9519 13.0618C95.002 13.2073 95.0818 13.3407 95.1863 13.4534C95.2908 13.5661 95.4176 13.6557 95.5586 13.7164C95.6997 13.7771 95.8518 13.8076 96.0052 13.8059C96.202 13.8296 96.4013 13.7941 96.5778 13.7038C96.7543 13.6136 96.9001 13.4728 96.9966 13.2992L97.7883 13.2992ZM94.8954 11.9522H97.0002C97.0106 11.8119 96.9916 11.671 96.9444 11.5386C96.8973 11.4061 96.823 11.285 96.7264 11.183C96.6298 11.081 96.513 11.0005 96.3835 10.9465C96.254 10.8925 96.1147 10.8662 95.9745 10.8695C95.8323 10.8677 95.6911 10.8945 95.5593 10.9482C95.4276 11.002 95.3079 11.0817 95.2073 11.1826C95.1068 11.2835 95.0274 11.4036 94.9738 11.5358C94.9202 11.668 94.8936 11.8096 94.8954 11.9522H94.8954Z" fill="white"></path></g><defs><clipPath id="clip0_1753_7067"><rect width="110.741" height="37.1285" fill="white" transform="translate(0.836792 0.784912)"></rect></clipPath></defs></svg>