<svg width="237" height="51" viewBox="0 0 237 51" fill="none" xmlns="http://www.w3.org/2000/svg"><g clip-path="url(#clip0_4910_460)"><path d="M26.5253 0.0195913C12.446 -0.538127 0.57924 10.4167 0.0194198 24.4879C-0.538617 38.5609 10.4224 50.4209 24.5017 50.9786C38.5828 51.5363 50.4478 40.5833 51.0076 26.5103C51.5674 12.4391 40.6064 0.579091 26.5253 0.0195913ZM37.2956 37.376C36.9782 37.9337 36.3596 38.2152 35.7588 38.1315C35.5733 38.1048 35.3897 38.0442 35.2168 37.9462C31.8454 36.0271 28.1691 34.7781 24.2931 34.2346C20.4172 33.6894 16.5395 33.8782 12.7687 34.7941C11.9504 34.9919 11.1267 34.4912 10.9288 33.6733C10.7309 32.8555 11.2319 32.0322 12.0502 31.8345C16.1971 30.8277 20.4582 30.621 24.7175 31.2197C28.9767 31.8184 33.0167 33.1904 36.7233 35.3001C37.4543 35.7153 37.7092 36.6454 37.2938 37.376H37.2956ZM40.6492 30.6816C40.1286 31.6438 38.9269 32.0019 37.9659 31.4816C34.0187 29.3488 29.7469 27.9482 25.2684 27.3175C20.7898 26.6885 16.297 26.8578 11.9147 27.8217C11.6776 27.8734 11.4405 27.8805 11.214 27.8502C10.4189 27.738 9.73782 27.1446 9.55597 26.3143C9.32063 25.247 9.99634 24.1903 11.0643 23.9569C15.9083 22.8914 20.8736 22.7043 25.8211 23.3992C30.7685 24.0941 35.4895 25.6425 39.8522 28.0017C40.815 28.522 41.1715 29.723 40.6527 30.6834L40.6492 30.6816ZM44.3664 23.1355C43.8762 24.0763 42.8581 24.5645 41.8651 24.4238C41.5977 24.3863 41.332 24.3044 41.0806 24.1725C36.4862 21.7848 31.5369 20.2061 26.372 19.4809C21.207 18.7557 16.0135 18.9089 10.9377 19.9388C9.61837 20.2061 8.33114 19.3544 8.06371 18.0358C7.79628 16.7173 8.64849 15.4308 9.96781 15.1635C15.5874 14.0231 21.3336 13.8521 27.0495 14.6557C32.7653 15.4593 38.2423 17.2055 43.3288 19.8498C44.5233 20.4698 44.9887 21.9416 44.3664 23.1355Z" fill="#fff"></path><path d="M69.9031 11.9972C71.3098 11.9972 72.5346 12.5015 73.0409 12.8614L73.5098 15.7801C73.0766 15.4201 71.9962 14.8428 70.8052 14.8428C69.0384 14.8428 68.1737 16.0687 68.1737 18.0501V20.3202H73.2228V23.0233H68.1737V38.1601H64.8201V23.0233H61.7197V20.3202H64.8201V17.8684C64.8201 14.3724 66.7314 11.9937 69.9049 11.9937L69.9031 11.9972Z" fill="#fff"></path><path d="M72.9678 29.2597C72.9678 23.9623 76.899 19.7446 82.4152 19.7446C87.9314 19.7446 91.8626 23.9623 91.8626 29.2597C91.8626 34.5571 87.9314 38.7391 82.4152 38.7391C76.899 38.7391 72.9678 34.5589 72.9678 29.2597ZM88.5108 29.2597C88.5108 25.475 86.0219 22.6277 82.417 22.6277C78.812 22.6277 76.3231 25.475 76.3231 29.2597C76.3231 33.0443 78.812 35.8543 82.417 35.8543C86.0219 35.8543 88.5108 33.0069 88.5108 29.2597Z" fill="#fff"></path><path d="M94.0985 20.322H97.3789V25.3308C98.208 22.4121 99.7234 19.9603 102.284 19.9603C103.077 19.9603 103.655 20.1402 103.942 20.3202L104.375 23.6362C104.015 23.3832 103.221 23.132 102.319 23.132C99.4702 23.132 97.9191 26.3036 97.4503 29.331V38.1618H94.0967V20.322H94.0985Z" fill="#fff"></path><path d="M109.062 25.3308C109.062 17.7258 114.362 11.9954 122.007 11.9954C125.938 11.9954 128.605 13.3282 130.049 14.5542V18.5544C128.678 16.7886 125.794 15.2384 122.26 15.2384C116.671 15.2384 112.668 19.4916 112.668 25.329C112.668 31.1663 116.671 35.4926 122.26 35.4926C125.614 35.4926 128.498 34.1598 130.049 32.2123V36.1412C128.318 37.6558 125.687 38.7356 122.007 38.7356C114.362 38.7356 109.062 33.0052 109.062 25.329V25.3308Z" fill="#fff"></path><path d="M131.998 20.322H135.278V25.3308C136.107 22.4121 137.623 19.9603 140.183 19.9603C140.976 19.9603 141.554 20.1402 141.841 20.3202L142.274 23.6362C141.914 23.3832 141.121 23.132 140.219 23.132C137.37 23.132 135.819 26.3036 135.35 29.331V38.1618H131.996V20.322H131.998Z" fill="#fff"></path><path d="M142.093 29.2597C142.093 23.9623 145.988 19.7446 151.289 19.7446C156.589 19.7446 160.376 23.9623 160.376 29.0441C160.376 29.3327 160.376 29.584 160.34 30.017H145.411C145.664 33.4043 148.044 35.9274 151.504 35.9274C154.173 35.9274 156.047 34.5215 156.805 32.467H160.123C158.969 36.2873 155.723 38.7391 151.431 38.7391C145.951 38.7391 142.091 34.5215 142.091 29.2597H142.093ZM156.949 27.4226C156.625 24.7552 154.353 22.5207 151.287 22.5207C148.22 22.5207 146.058 24.7552 145.517 27.4226H156.949Z" fill="#fff"></path><path d="M161.781 33.2243C161.781 29.7284 164.377 27.2783 170.039 27.2783H173.862V26.954C173.862 24.5396 172.744 22.7738 169.462 22.7738C166.793 22.7738 164.306 24.1441 162.97 25.6568V22.1252C164.233 21.0793 166.864 19.8195 169.931 19.8195C174.98 19.8195 177.142 22.7025 177.142 26.9202V36.5796C177.142 37.1195 177.214 37.6255 177.358 38.1654H174.005V34.6338C173.14 36.5439 171.084 38.634 167.731 38.634C164.377 38.634 161.781 36.5439 161.781 33.2279V33.2243ZM173.86 31.3855V29.8353H170.218C166.791 29.8353 165.133 31.0238 165.133 33.0426C165.133 34.7371 166.395 35.89 168.414 35.89C171.118 35.89 172.958 33.7999 173.858 31.3855H173.86Z" fill="#fff"></path><path d="M181.616 33.0088V23.0251H178.082V21.5123L184.898 15.8906H184.934V20.3238H189.945V23.0269H184.934V32.6506C184.934 34.9937 186.087 35.7867 187.71 35.7867C188.899 35.7867 189.874 35.2824 190.485 34.7407L189.872 37.6968C189.294 38.1654 188.177 38.634 186.807 38.634C183.851 38.634 181.614 37.0126 181.614 33.0123L181.616 33.0088Z" fill="#fff"></path><path d="M190.844 29.2597C190.844 23.9623 194.775 19.7446 200.291 19.7446C205.807 19.7446 209.739 23.9623 209.739 29.2597C209.739 34.5571 205.807 38.7391 200.291 38.7391C194.775 38.7391 190.844 34.5589 190.844 29.2597ZM206.387 29.2597C206.387 25.475 203.898 22.6277 200.293 22.6277C196.688 22.6277 194.199 25.475 194.199 29.2597C194.199 33.0443 196.688 35.8543 200.293 35.8543C203.898 35.8543 206.387 33.0069 206.387 29.2597Z" fill="#fff"></path><path d="M211.832 20.322H215.112V25.3308C215.941 22.4121 217.457 19.9603 220.017 19.9603C220.81 19.9603 221.388 20.1402 221.675 20.3202L222.108 23.6362C221.748 23.3832 220.955 23.132 220.053 23.132C217.204 23.132 215.653 26.3036 215.184 29.331V38.1618H211.83V20.322H211.832Z" fill="#fff"></path><path d="M223.153 36.143V32.3583C224.524 34.1972 227.3 35.783 230.114 35.783C232.458 35.783 233.827 34.7015 233.827 33.333C233.827 32.2514 233.358 31.5315 230.185 30.7386L228.598 30.3413C225.425 29.5484 223.298 28.1068 223.298 25.1508C223.298 22.1947 225.929 19.7803 230.078 19.7803C232.674 19.7803 234.947 20.7175 235.956 21.6191V25.1508C235.163 24.0692 232.927 22.7007 230.258 22.7007C227.807 22.7007 226.58 23.7823 226.58 25.0438C226.58 26.1967 227.193 26.7384 230.367 27.5313L231.954 27.9269C235.127 28.7198 237.003 30.3056 237.003 33.1887C237.003 36.0717 234.587 38.7035 230.151 38.7035C227.158 38.7035 224.489 37.3707 223.155 36.1447L223.153 36.143Z" fill="#fff"></path></g><defs><clipPath id="clip0_4910_460"><rect width="237" height="51" fill="white"></rect></clipPath></defs></svg>